# xmcd CD database file
#
# Track frame offsets:
#	150
#	10597
#	26363
#	45266
#	60125
#	77990
#	96438
#	108600
#	122878
#	136342
#	150271
#	163518
#	179700
#
# Disc length: 2601 seconds
#
# Revision: 2
# Processed by: cddbd v1.5.2PL0 Copyright (c) Steve Scherf et al.
# Submitted via: CDex 1.40PlusFr
#
DISCID=980a270d
DTITLE=Django Reinhardt - Djangogologie 19 1949 1950
DYEAR=1970
DGENRE=Jazz
TTITLE0=Micro (Mike)
TTITLE1=Stormy Weather
TTITLE2=Blue Skies
TTITLE3=The Man I Love
TTITLE4=The Peanut Vendor
TTITLE5=It Might as Well be Spring
TTITLE6=Micro (Mike)/Alternate Take
TTITLE7=Danse Norvegienne
TTITLE8=Dinette
TTITLE9=Reverie
TTITLE10=Place de Broukere
TTITLE11=Black Night
TTITLE12=Boogie Woogie
EXTD=YEAR: 1970 ID3G: 8
EXTT0=
EXTT1=
EXTT2=
EXTT3=
EXTT4=
EXTT5=
EXTT6=
EXTT7=
EXTT8=
EXTT9=
EXTT10=
EXTT11=
EXTT12=
PLAYORDER=
